 <svg  version="1.0" xmlns="http://www.w3.org/2000/svg"  width="900.000000pt" height="651.000000pt" viewBox="0 0 900.000000 651.000000"  preserveAspectRatio="xMidYMid meet">  <g transform="translate(0.000000,651.000000) scale(0.100000,-0.100000)" fill="#333f4f" stroke="none"> <path d="M4425 5770 c-38 -4 -127 -13 -198 -19 -70 -6 -139 -16 -153 -21 -14 -6 -43 -10 -66 -10 -39 0 -118 -15 -240 -46 -32 -8 -66 -14 -75 -14 -10 0 -31 -7 -47 -15 -15 -8 -34 -15 -42 -15 -7 0 -30 -7 -51 -16 -21 -9 -51 -22 -68 -29 -77 -33 -165 -73 -220 -101 -57 -29 -60 -33 -67 -75 -3 -24 -7 -81 -7 -127 -1 -90 -18 -132 -53 -132 -11 0 -34 -6 -51 -14 -18 -8 -59 -24 -92 -37 -33 -13 -98 -43 -145 -68 -47 -24 -98 -51 -115 -59 -108 -56 -250 -167 -391 -307 -166 -164 -261 -290 -356 -473 -47 -90 -50 -100 -45 -151 3 -30 11 -59 16 -64 6 -6 11 -21 11 -34 0 -12 6 -40 14 -60 17 -48 52 -183 76 -292 6 -25 14 -59 19 -75 21 -68 66 -259 116 -491 10 -44 24 -103 31 -132 8 -28 14 -64 14 -79 0 -15 6 -53 14 -83 8 -31 20 -85 26 -121 28 -157 42 -239 49 -291 5 -31 13 -79 19 -105 13 -57 29 -173 43 -294 5 -47 14 -98 19 -114 6 -16 10 -50 10 -76 0 -26 6 -85 14 -131 8 -46 17 -124 21 -174 4 -49 12 -96 17 -103 8 -10 446 -12 2157 -12 1180 0 2151 4 2157 8 13 9 44 193 44 265 0 30 4 67 10 83 5 16 14 70 19 119 11 99 24 194 46 330 8 50 21 135 30 190 9 55 21 121 26 147 6 26 14 71 19 100 9 58 22 131 46 248 9 41 22 109 31 150 8 41 19 91 24 110 5 19 14 55 18 80 11 55 51 227 86 370 8 30 19 75 25 100 6 25 18 69 26 97 20 75 41 148 59 218 9 33 22 81 31 106 l15 46 -38 72 c-21 40 -44 84 -52 99 -15 30 -99 160 -116 179 -5 7 -15 18 -20 25 -88 112 -127 156 -202 228 -127 121 -268 233 -333 263 -8 4 -31 17 -50 28 -107 65 -234 124 -351 163 -101 33 -99 29 -99 172 0 97 -3 126 -15 138 -9 8 -68 41 -133 72 -64 31 -125 60 -135 65 -80 41 -392 124 -527 140 -36 4 -101 12 -145 18 -201 26 -292 33 -455 36 -96 2 -206 0 -245 -5z m400 -91 c220 -15 284 -24 470 -65 241 -52 655 -212 655 -252 0 -14 -28 -193 -38 -247 -6 -27 -18 -95 -27 -150 -9 -55 -21 -122 -27 -149 -6 -26 -14 -74 -18 -105 -11 -71 -36 -221 -48 -286 -6 -27 -18 -95 -27 -150 -9 -55 -23 -130 -31 -166 -8 -37 -14 -80 -14 -96 0 -17 -5 -43 -10 -59 -6 -16 -14 -58 -19 -94 -16 -110 -39 -244 -45 -260 -4 -8 -10 -44 -15 -80 -15 -106 -39 -244 -45 -260 -3 -8 -10 -46 -15 -85 -12 -87 -38 -235 -45 -255 -3 -8 -10 -49 -16 -90 -5 -41 -17 -111 -25 -155 -8 -44 -22 -120 -30 -170 -35 -199 -41 -226 -55 -235 -9 -6 -320 -10 -771 -10 -593 0 -759 3 -766 13 -6 6 -16 44 -22 82 -7 39 -17 95 -23 125 -18 97 -39 223 -47 281 -5 31 -13 79 -19 105 -10 47 -21 109 -58 324 -8 52 -22 127 -29 165 -18 91 -34 184 -45 265 -4 36 -13 78 -19 93 -6 16 -11 45 -11 66 0 21 -7 60 -15 87 -8 27 -15 64 -15 83 0 18 -6 63 -14 100 -8 36 -21 107 -30 156 -8 50 -22 128 -30 175 -8 47 -18 103 -21 125 -3 22 -10 60 -15 85 -9 43 -27 144 -50 280 -7 36 -18 103 -27 150 -8 47 -18 113 -23 148 -5 35 -14 80 -20 100 -5 20 -10 54 -10 75 0 40 -6 37 185 121 35 16 178 67 250 90 28 8 66 20 85 27 42 14 146 37 218 49 29 4 74 13 100 19 162 37 414 48 667 30z"/> <path d="M4662 5458 c-7 -7 -12 -16 -12 -20 0 -5 -14 -39 -31 -76 -17 -37 -40 -87 -51 -112 -70 -152 -70 -153 -134 -172 -32 -10 -69 -18 -81 -18 -29 0 -60 -34 -69 -74 -3 -17 -9 -35 -13 -41 -4 -5 -17 -37 -30 -70 -13 -33 -29 -74 -37 -92 -8 -17 -14 -37 -14 -45 0 -8 -3 -18 -6 -21 -10 -10 -54 -120 -54 -134 0 -26 -40 -12 -91 32 -29 25 -59 45 -66 45 -7 0 -16 -12 -19 -27 -4 -16 -10 -32 -13 -38 -4 -5 -17 -37 -30 -70 -12 -33 -27 -69 -31 -80 -5 -11 -19 -45 -31 -75 -11 -30 -27 -68 -34 -85 -25 -59 -34 -81 -55 -135 -12 -30 -26 -63 -31 -72 -5 -10 -9 -21 -9 -24 0 -10 1854 7 1864 17 5 5 5 13 -1 21 -11 13 -63 111 -173 326 -61 116 -120 211 -174 273 -17 20 -41 49 -53 65 -11 16 -41 55 -66 87 l-45 58 5 -163 c5 -145 4 -165 -11 -177 -22 -18 -25 -13 -64 89 -18 47 -39 99 -47 115 -16 34 -28 65 -79 190 -53 130 -52 127 -67 160 -7 17 -18 44 -24 60 -7 17 -28 68 -47 115 -19 47 -38 106 -42 133 -7 49 -14 55 -34 35z m12 -548 c5 -220 11 -327 19 -342 7 -13 21 -36 32 -53 80 -126 110 -173 169 -264 37 -57 64 -107 59 -111 -12 -13 -1101 -16 -1114 -3 -7 7 -5 19 5 39 18 36 39 86 61 144 17 43 30 76 54 130 6 14 15 37 21 53 14 40 44 34 102 -18 55 -50 66 -53 74 -27 4 9 12 31 20 49 8 17 14 37 14 45 0 8 4 18 8 24 4 5 18 36 31 69 33 87 52 136 66 170 7 17 23 58 35 92 12 35 29 68 38 75 8 7 40 18 71 24 99 21 109 28 141 98 17 35 30 67 30 71 0 12 35 54 46 55 7 0 13 -99 18 -320z"/> <path d="M4700 3877 c-24 -14 -45 -24 -175 -82 -33 -14 -78 -35 -100 -45 -22 -10 -67 -30 -100 -45 -33 -14 -73 -32 -90 -40 -16 -8 -52 -24 -80 -36 -27 -11 -72 -32 -100 -44 -27 -13 -80 -37 -117 -54 -38 -17 -68 -34 -68 -38 0 -5 35 -19 78 -31 42 -13 84 -27 93 -32 9 -5 34 -12 54 -16 21 -4 50 -13 64 -20 14 -8 34 -14 44 -14 9 0 25 -4 35 -9 9 -5 71 -26 137 -47 66 -20 134 -43 152 -50 46 -21 59 -18 137 29 39 24 78 46 86 50 8 4 29 16 45 27 17 11 42 26 58 32 15 7 27 15 27 19 0 4 11 10 25 13 14 4 25 11 25 16 0 6 5 10 11 10 6 0 44 19 83 43 39 24 78 46 86 50 8 4 29 16 45 27 17 11 42 25 58 31 15 6 27 15 27 20 0 5 5 9 11 9 21 0 200 113 196 124 -2 6 -41 16 -88 23 -98 13 -193 28 -302 49 -42 8 -91 14 -107 14 -16 0 -40 4 -54 10 -47 18 -169 22 -196 7z"/> <path d="M5255 3602 c-36 -21 -103 -62 -130 -80 -11 -6 -29 -16 -40 -21 -11 -5 -73 -40 -136 -79 -64 -38 -126 -73 -138 -77 -11 -3 -21 -11 -21 -16 0 -5 -5 -9 -11 -9 -6 0 -48 -22 -94 -50 -46 -27 -93 -50 -106 -50 -24 0 -227 61 -286 86 -17 8 -38 14 -46 14 -8 0 -28 7 -43 15 -16 8 -36 15 -45 15 -9 0 -33 7 -52 15 -45 19 -91 19 -125 1 -15 -7 -48 -23 -75 -36 -44 -20 -55 -40 -21 -40 16 0 103 -25 139 -40 11 -5 54 -18 95 -31 41 -12 89 -28 107 -35 17 -8 38 -14 46 -14 8 0 28 -7 43 -15 16 -8 36 -15 44 -15 8 0 47 -12 85 -27 109 -40 145 -41 205 -4 28 17 52 31 55 31 2 0 24 14 48 30 25 17 48 30 52 30 4 0 77 42 163 94 87 52 173 103 192 115 19 11 44 25 55 30 12 5 61 33 110 63 50 30 98 57 108 61 44 16 -1 39 -103 51 -33 4 -53 1 -75 -12z"/> <path d="M5246 3403 c-18 -5 -60 -27 -111 -61 -11 -7 -32 -17 -47 -23 -16 -6 -28 -15 -28 -19 0 -4 -11 -11 -25 -14 -14 -4 -25 -11 -25 -16 0 -6 -5 -10 -11 -10 -6 0 -67 -34 -136 -75 -68 -41 -128 -75 -133 -75 -5 0 -15 -6 -22 -12 -20 -19 -114 -68 -129 -68 -17 0 -173 48 -216 66 -17 8 -40 14 -51 14 -12 0 -23 4 -26 9 -3 5 -21 12 -40 15 -20 4 -48 13 -63 21 -15 8 -38 15 -50 15 -12 0 -25 5 -28 10 -8 12 -39 13 -63 1 -31 -16 -130 -61 -157 -71 -35 -13 -26 -23 42 -45 32 -10 72 -24 90 -32 17 -7 38 -13 47 -13 8 0 30 -6 48 -14 18 -8 80 -29 138 -47 58 -17 119 -38 137 -46 17 -7 38 -13 48 -13 9 0 30 -7 47 -16 17 -9 52 -17 77 -17 40 0 63 10 174 76 71 42 131 77 133 77 2 0 23 12 47 27 62 41 80 51 102 61 19 9 240 139 275 162 8 6 24 15 35 20 61 31 119 68 123 78 2 7 -6 12 -21 12 -13 0 -37 4 -53 9 -39 13 -105 19 -128 14z"/> <path d="M7467 3910 c-3 -8 -8 -26 -11 -40 -2 -14 -12 -50 -20 -80 -43 -157 -59 -218 -66 -250 -5 -19 -15 -64 -24 -100 -8 -36 -20 -87 -27 -115 -6 -27 -17 -72 -25 -99 -8 -26 -14 -59 -14 -72 0 -14 -6 -50 -14 -82 -23 -93 -37 -158 -46 -214 -13 -84 -30 -179 -42 -232 -6 -27 -14 -79 -19 -115 -5 -36 -15 -111 -23 -166 -8 -55 -20 -138 -26 -185 -6 -47 -15 -116 -20 -155 -6 -38 -15 -124 -20 -189 -6 -65 -13 -128 -15 -140 -3 -12 -9 -95 -14 -186 -7 -122 -6 -167 2 -172 7 -4 204 -8 438 -8 343 0 429 3 438 13 12 16 32 267 38 512 5 169 -8 446 -29 600 -6 44 -14 109 -18 145 -4 36 -12 88 -18 115 -6 28 -16 75 -21 105 -6 30 -18 84 -26 120 -9 36 -20 85 -25 110 -6 25 -14 56 -19 70 -4 14 -15 50 -24 80 -35 119 -61 195 -69 204 -4 6 -8 18 -8 28 0 9 -7 32 -15 50 -8 18 -37 89 -66 158 -61 149 -111 257 -132 285 -13 16 -16 17 -20 5z"/> <path d="M1771 3897 c-6 -6 -11 -16 -11 -23 0 -6 -11 -32 -25 -58 -106 -200 -261 -650 -320 -931 -9 -44 -21 -100 -27 -125 -10 -44 -14 -69 -37 -255 -7 -49 -17 -124 -22 -165 -18 -122 -23 -577 -9 -730 7 -74 15 -171 19 -215 l6 -80 443 -3 c402 -2 443 -1 449 14 3 9 1 76 -6 148 -6 72 -16 181 -21 241 -5 61 -14 144 -19 185 -11 84 -29 228 -41 340 -9 72 -16 120 -41 260 -6 36 -15 94 -20 130 -5 36 -13 85 -18 110 -21 97 -32 157 -40 210 -5 30 -14 75 -20 100 -6 25 -20 88 -31 140 -39 180 -42 195 -56 242 -8 26 -14 53 -14 61 0 8 -7 39 -16 68 -8 30 -21 77 -29 104 -7 28 -20 75 -28 105 -8 30 -18 71 -21 92 -7 38 -26 54 -45 35z"/> <path d="M903 1369 c-70 -35 -143 -108 -173 -175 -25 -54 -28 -184 -5 -228 8 -15 15 -33 15 -38 0 -13 59 -89 82 -106 9 -7 23 -18 30 -25 21 -21 98 -54 168 -72 36 -9 85 -22 110 -29 58 -17 140 -40 215 -61 33 -9 74 -21 91 -26 16 -5 50 -13 75 -19 41 -9 102 -23 209 -50 66 -17 154 -36 245 -55 177 -37 222 -46 270 -57 27 -6 77 -15 110 -19 33 -4 98 -14 145 -22 47 -8 119 -20 160 -26 41 -6 102 -16 135 -22 33 -6 101 -15 150 -19 84 -8 149 -15 367 -41 82 -10 197 -18 583 -39 209 -11 1272 -11 1490 0 458 24 568 33 785 61 41 5 122 14 180 19 58 5 121 14 140 20 19 5 52 10 73 10 21 0 66 6 100 14 34 8 96 20 137 26 41 6 113 18 160 26 47 9 99 18 115 20 17 3 59 11 95 19 36 7 101 21 145 30 44 9 98 21 120 27 22 5 69 16 105 24 128 29 292 70 395 99 28 8 77 21 110 31 33 9 80 22 105 30 129 38 150 44 160 44 32 0 120 53 161 96 94 102 126 225 85 338 -33 94 -93 156 -195 202 -43 19 -70 24 -138 24 -99 0 -102 -2 -177 -129 -29 -50 -54 -81 -68 -85 -12 -3 -432 -11 -933 -17 -732 -10 -1014 -10 -1440 1 -389 9 -735 11 -1300 4 -853 -9 -2160 -7 -2672 4 -376 8 -334 -3 -395 101 -17 30 -44 69 -61 87 -29 34 -30 34 -116 34 -76 0 -93 -4 -148 -31z"/> </g> </svg> 